<?xml version="1.0" encoding="UTF-8"?>
<svg id="Layer_1" xmlns="http://www.w3.org/2000/svg" xmlns:xlink="http://www.w3.org/1999/xlink" version="1.1" viewBox="0 0 180 177">
  <!-- Generator: Adobe Illustrator 29.5.1, SVG Export Plug-In . SVG Version: 2.1.0 Build 141)  -->
  <defs>
    <style>
      .st0 {
        fill: none;
      }

      .st1 {
        fill: #fcbc32;
      }

      .st2 {
        clip-path: url(#clippath);
      }
    </style>
    <clipPath id="clippath">
      <polyline class="st0" points="0 269 0 0 1360 0"/>
    </clipPath>
  </defs>
  <g class="st2">
    <g>
      <path class="st1" d="M17.26,21.63c5.99,0,10.78-4.77,10.78-10.74S23.25.16,17.26.16,6.48,4.93,6.48,10.89s4.79,10.74,10.78,10.74Z"/>
      <path class="st1" d="M21.06,70.15c9.18-2.19,14.97-11.33,12.78-20.48-2.2-9.15-11.38-14.91-20.57-12.72C4.09,39.14-1.7,48.28.5,57.43c2.2,9.35,11.38,14.91,20.57,12.72Z"/>
      <path class="st1" d="M21.06,155.45c9.18-2.19,14.97-11.33,12.78-20.48-2.2-9.14-11.38-14.91-20.57-12.72-9.19,2.19-14.98,11.33-12.78,20.48,2.2,9.15,11.38,14.91,20.57,12.72Z"/>
      <path class="st1" d="M27.87,96.18c0-5.96-4.79-10.74-10.78-10.74s-10.78,4.77-10.78,10.74,4.79,10.74,10.78,10.74,10.78-4.77,10.78-10.74Z"/>
      <path class="st1" d="M82.98,95c-9.38,0-17.17,7.56-17.17,17.1s7.59,17.1,17.17,17.1,17.17-7.56,17.17-17.1c-.2-9.54-7.79-17.1-17.17-17.1Z"/>
      <path class="st1" d="M82.98,143.9c-5.99,0-10.78,4.77-10.78,10.74s4.79,10.74,10.78,10.74,10.78-4.77,10.78-10.74c-.2-5.97-4.99-10.74-10.78-10.74Z"/>
      <path class="st1" d="M82.98,80.08c5.99,0,10.78-4.77,10.78-10.74s-4.79-10.74-10.78-10.74-10.78,4.77-10.78,10.74,4.79,10.74,10.78,10.74Z"/>
      <path class="st1" d="M84.56,37.35c5.79-.99,9.78-6.36,8.79-12.13-1-5.77-6.39-9.74-12.18-8.75-5.79.99-9.78,6.36-8.79,12.13,1,5.77,6.39,9.54,12.18,8.75Z"/>
      <path class="st1" d="M160.65,65.58c6.59-6.56,6.59-17.5,0-24.06s-17.57-6.56-24.16,0-6.59,17.5,0,24.06c6.59,6.76,17.57,6.76,24.16,0Z"/>
      <path class="st1" d="M148.66,21.63c5.99,0,10.78-4.77,10.78-10.74S154.65.16,148.66.16s-10.78,4.77-10.78,10.74,4.79,10.74,10.78,10.74Z"/>
      <path class="st1" d="M148.66,85.65c-5.99,0-10.78,4.77-10.78,10.74s4.79,10.74,10.78,10.74,10.78-4.77,10.78-10.74c-.2-5.97-4.99-10.74-10.78-10.74Z"/>
      <path class="st1" d="M148.66,128.2c-5.99,0-10.78,4.77-10.78,10.74s4.79,10.74,10.78,10.74,10.78-4.77,10.78-10.74c-.2-5.96-4.99-10.74-10.78-10.74Z"/>
    </g>
  </g>
</svg>